<svg id="Group_28943" data-name="Group 28943" xmlns="http://www.w3.org/2000/svg" xmlns:xlink="http://www.w3.org/1999/xlink" width="287.872" height="61.545" viewBox="0 0 287.872 61.545">
  <defs>
    <clipPath id="clip-path">
      <rect id="Rectangle_13645" data-name="Rectangle 13645" width="287.872" height="61.545" fill="none"/>
    </clipPath>
  </defs>
  <g id="Group_28942" data-name="Group 28942" clip-path="url(#clip-path)">
    <g id="Group_29700" data-name="Group 29700">
      <path id="Path_47732" data-name="Path 47732" d="M45.445,21.436l2.129-7h7.008l5.2,8.427,10.3-8.427h6.98l-2.036,7h34.211l-2.147,7H65.931l1.8-6.021L57.362,30.953l-5.2-8.432L50.4,28.441H9.091C10.677,23.415,14.94,9.373,14.94,9.373,17.421,1.061,22.8.36,30.52.36l85.155.024L113.5,7.476l-85.809.01c-3.884,0-5.162,1.964-6.184,5.386l-2.618,8.564Z" fill="#e35217" fill-rule="evenodd"/>
      <path id="Path_47733" data-name="Path 47733" d="M69.28,40.47l-2.131,7H60.142l-5.2-8.427-10.3,8.427H37.658l2.04-7H5.487l2.092-7.006H48.793l-1.8,6.022,10.367-8.533,5.2,8.431,1.766-5.92h41.244c-1.587,5.026-4.674,15.3-4.674,15.3C98.413,57.072,96.786,61.545,84.2,61.545L0,61.522,2.072,54.43l84.274-.01c3.885,0,5.818-2,6.84-5.419,0,0,2.859-9.182,2.667-8.531Z" fill="#30594c" fill-rule="evenodd"/>
    </g>
    <path id="Path_47734" data-name="Path 47734" d="M185.712,61.495l5.136-17.2h5.041L198,50.953l6.1-6.659h5.055l-5.136,17.2h-4.767l2.948-9.874-6.4,6.732H195.7l-2.386-6.683-2.934,9.825Zm-16.389,0,5.136-17.2h13.813l-1.21,4.055h-9.1l-.778,2.6h8.232l-1.123,3.76h-8.231l-.815,2.727h9.215l-1.211,4.055ZM156.068,48.472l1.248-4.178h15.062l-1.247,4.178H165.97l-3.888,13.023h-4.767L161.2,48.472Zm-17.933,8.986c2.505,0,5.038-.028,7.531,0,0,0,1.879.223,2.2-.849a.756.756,0,0,0-.32-.9,7.093,7.093,0,0,0-2.064-.741c-.541-.139-1.007-.262-1.4-.381a12.345,12.345,0,0,1-1.238-.438,6.072,6.072,0,0,1-1.065-.549,4.4,4.4,0,0,1-.783-.7,2.505,2.505,0,0,1-.506-.885,3.408,3.408,0,0,1-.131-1.109,5.256,5.256,0,0,1,.239-1.393,7.188,7.188,0,0,1,3-3.968,8.691,8.691,0,0,1,4.961-1.225v0h6.9l-1.207,4.043h-6.9s-1.53-.114-1.79.757a.753.753,0,0,0,.312.93,8,8,0,0,0,2.15.741,15.406,15.406,0,0,1,2.455.761,5.989,5.989,0,0,1,1.681,1.037,2.631,2.631,0,0,1,.865,1.519,4.488,4.488,0,0,1-.19,2.093,7.18,7.18,0,0,1-3.122,4.1,9.594,9.594,0,0,1-5.426,1.192h-7.352Zm-32.436,0c2.506,0,5.038-.028,7.532,0,0,0,1.878.223,2.2-.849a.756.756,0,0,0-.32-.9,7.093,7.093,0,0,0-2.064-.741c-.54-.139-1.007-.262-1.4-.381a12.434,12.434,0,0,1-1.238-.438,6.023,6.023,0,0,1-1.064-.549,4.4,4.4,0,0,1-.784-.7,2.487,2.487,0,0,1-.5-.885,3.407,3.407,0,0,1-.132-1.109,5.259,5.259,0,0,1,.24-1.393,7.183,7.183,0,0,1,2.995-3.968,8.688,8.688,0,0,1,4.96-1.225v0h6.905l-1.207,4.043h-6.9s-1.529-.114-1.79.757a.756.756,0,0,0,.312.93,8.01,8.01,0,0,0,2.15.741,15.421,15.421,0,0,1,2.456.761,6,6,0,0,1,1.681,1.037,2.629,2.629,0,0,1,.864,1.519,4.475,4.475,0,0,1-.19,2.093,7.18,7.18,0,0,1-3.122,4.1,9.594,9.594,0,0,1-5.426,1.192h-7.352Zm18.555-13.164h5.434l1.645,6.275,5.428-6.275h5.34l-9.732,10.689-1.944,6.512h-4.767l1.923-6.442Z" fill="#30594c"/>
    <path id="Path_47735" data-name="Path 47735" d="M264.91,26.813l1.21-4.053h15.062l-1.21,4.053h-5.16l-3.926,13.148h-4.767l3.926-13.148ZM242.637,39.961l5.136-17.2h4.456l4.353,9.092L259.3,22.76h4.718l-5.136,17.2h-4.165l-4.545-9.428-2.815,9.428Zm-16.389,0,5.136-17.2H245.2l-1.211,4.056h-9.095l-.778,2.6h8.232l-1.123,3.76h-8.231l-.815,2.728h9.215l-1.21,4.054Zm-21.32,0,5.136-17.2H215.1l2.114,6.659,6.1-6.659h5.055l-5.137,17.2h-4.767l2.949-9.875-6.4,6.733h-.094l-2.386-6.683L209.6,39.961ZM191.711,26.812l1.209-4.052h15.063l-1.21,4.052h-5.16l-3.926,13.149H192.92l3.926-13.149ZM156.8,39.961l5.136-17.2h13.813l-1.21,4.054h-9.1l-.778,2.605H172.9l-1.123,3.76h-8.231l-.815,2.728h9.214l-1.21,4.054Zm-14.915-17.2h5.34l.646,10.894,7.164-10.894h5.23L148.126,40.083H143.7Zm-23.036,17.2,5.136-17.2h4.456l4.353,9.092,2.715-9.092h4.718l-5.136,17.2H130.93l-4.544-9.428-2.816,9.428Zm54.966-4.05c2.507,0,5.039-.027,7.533,0,0,0,1.878.222,2.2-.85a.755.755,0,0,0-.321-.9,7.074,7.074,0,0,0-2.064-.742c-.54-.139-1.007-.262-1.4-.381a11.935,11.935,0,0,1-1.237-.438,5.971,5.971,0,0,1-1.065-.548,4.327,4.327,0,0,1-.783-.7,2.47,2.47,0,0,1-.505-.885,3.376,3.376,0,0,1-.132-1.109,5.225,5.225,0,0,1,.24-1.393A7.181,7.181,0,0,1,179.277,24a8.688,8.688,0,0,1,4.96-1.225v0h6.9l-1.208,4.043h-6.9s-1.531-.115-1.79.756a.754.754,0,0,0,.312.93,8.026,8.026,0,0,0,2.149.742,15.186,15.186,0,0,1,2.456.761,5.966,5.966,0,0,1,1.681,1.037,2.62,2.62,0,0,1,.865,1.518,4.477,4.477,0,0,1-.191,2.093,7.169,7.169,0,0,1-3.122,4.1,9.59,9.59,0,0,1-5.425,1.192h-7.352Zm-62.895,4.05,5.136-17.2h4.767l-5.136,17.2Z" fill="#30594c" fill-rule="evenodd"/>
    <path id="Path_47736" data-name="Path 47736" d="M265.7,18.194,271.029.357h4.62l4.515,9.429L282.979.357h4.893l-5.326,17.837h-4.32l-4.712-9.776-2.92,9.776Zm-21.689,0L256.979.229h4.765l2.226,17.965h-5.3l-.638-7.033h.015l-.475-5.075-3.534,5.075h.031l-4.853,7.033Zm-6.791,0L242.549.357h4.944l-5.326,17.837Zm-15.789,0L226.76.357H231.7l-4.033,13.506h8.639l-1.293,4.331ZM207.368,9.275a4.043,4.043,0,0,0,.281,3.4,3.092,3.092,0,0,0,2.855,1.418,5.673,5.673,0,0,0,3.7-1.4,6.954,6.954,0,0,0,2.288-3.415,4.04,4.04,0,0,0-.281-3.4,3.118,3.118,0,0,0-2.88-1.419,5.644,5.644,0,0,0-3.672,1.4,6.956,6.956,0,0,0-2.289,3.414m-5.045,0a11.855,11.855,0,0,1,1.815-3.6,14.279,14.279,0,0,1,2.887-2.955,13.892,13.892,0,0,1,3.648-1.98A11.7,11.7,0,0,1,214.712,0a8.365,8.365,0,0,1,3.6.732A6.071,6.071,0,0,1,220.76,2.7a6.29,6.29,0,0,1,1.108,2.947,8.8,8.8,0,0,1-.358,3.631,11.849,11.849,0,0,1-1.815,3.606,14.235,14.235,0,0,1-2.893,2.96,13.873,13.873,0,0,1-3.642,1.974,11.693,11.693,0,0,1-4.038.735,7.91,7.91,0,0,1-4.527-1.235,5.876,5.876,0,0,1-2.434-3.359,8.262,8.262,0,0,1,.162-4.681m-19.576-.021a12.017,12.017,0,0,1,1.81-3.631,13.872,13.872,0,0,1,2.876-2.947A13.713,13.713,0,0,1,191.07.722,11.839,11.839,0,0,1,195.107,0a9.538,9.538,0,0,1,3.8.667,7.163,7.163,0,0,1,2.64,1.966l-3.931,3.483a5.019,5.019,0,0,0-1.645-1.244,5.126,5.126,0,0,0-2.166-.413,5.776,5.776,0,0,0-3.679,1.41,6.951,6.951,0,0,0-2.354,3.462,4.124,4.124,0,0,0,.293,3.6,3.4,3.4,0,0,0,3.064,1.418,6.2,6.2,0,0,0,3.1-.773l.667-2.234h-3.542l1.065-3.568h8.206l-2.4,8.048a15.405,15.405,0,0,1-8.549,2.73,8.461,8.461,0,0,1-4.61-1.175,5.711,5.711,0,0,1-2.486-3.308,8.414,8.414,0,0,1,.176-4.813m-22.053,8.94L166.02.357h4.621l4.515,9.429L177.972.357h4.892l-5.326,17.837h-4.319l-4.712-9.776-2.92,9.776ZM146.628,9.275a4.046,4.046,0,0,0,.282,3.4,3.094,3.094,0,0,0,2.855,1.418,5.668,5.668,0,0,0,3.7-1.4,6.945,6.945,0,0,0,2.29-3.415,4.04,4.04,0,0,0-.282-3.4,3.116,3.116,0,0,0-2.879-1.419,5.64,5.64,0,0,0-3.672,1.4,6.953,6.953,0,0,0-2.291,3.414m-5.043,0a11.851,11.851,0,0,1,1.814-3.6,14.257,14.257,0,0,1,2.888-2.955,13.86,13.86,0,0,1,3.648-1.98A11.7,11.7,0,0,1,153.973,0a8.359,8.359,0,0,1,3.595.732A6.074,6.074,0,0,1,160.022,2.7a6.333,6.333,0,0,1,1.108,2.947,8.817,8.817,0,0,1-.359,3.631,11.848,11.848,0,0,1-1.815,3.606,14.165,14.165,0,0,1-2.894,2.96,13.851,13.851,0,0,1-3.641,1.974,11.693,11.693,0,0,1-4.038.735,7.914,7.914,0,0,1-4.527-1.235,5.87,5.87,0,0,1-2.433-3.359,8.253,8.253,0,0,1,.162-4.681m-24.161,8.919L122.75.357h5.228l2.193,6.905L136.492.357h5.241l-5.326,17.837h-4.943l3.058-10.24-6.643,6.982h-.1l-2.474-6.93-3.042,10.188Z" fill="#30594c"/>
    <path id="Path_47737" data-name="Path 47737" d="M246.116,15.281s11.419,1.577,19.956-7.195c0,0-7.721,6.592-17.8,4.215Z" fill="#e35217" fill-rule="evenodd"/>
  </g>
</svg>
