<svg xmlns="http://www.w3.org/2000/svg" width="20" height="15" viewBox="0 0 20 15">
  <g id="Group_28934" data-name="Group 28934" transform="translate(0.38 0.065)" style="mix-blend-mode: normal;isolation: isolate">
    <g id="Group_28815" data-name="Group 28815" transform="translate(-0.38 -0.065)">
      <path id="Path_46013" data-name="Path 46013" d="M19.734,6.825,13.37.263A.89.89,0,0,0,12.1.274a.959.959,0,0,0-.011,1.314L16.9,6.551H.909a.938.938,0,0,0,0,1.875H16.9l-4.812,4.962a.959.959,0,0,0-.011,1.337.89.89,0,0,0,1.3-.012l6.364-6.563a.958.958,0,0,0,0-1.326" transform="translate(0 0)" fill="#fff"/>
    </g>
  </g>
</svg>
